<svg width="120" height="101" viewBox="0 0 120 101" fill="none" xmlns="http://www.w3.org/2000/svg">
<path fill-rule="evenodd" clip-rule="evenodd" d="M90 30.5C90 13.9315 76.5685 0.5 60 0.5C43.4315 0.5 30 13.9315 30 30.5V70.5C30 87.0685 43.4315 100.5 60 100.5C76.5685 100.5 90 87.0685 90 70.5V30.5Z" fill="white"/>
<path fill-rule="evenodd" clip-rule="evenodd" d="M120 50.5C120 22.8858 97.6142 0.5 70 0.5H50C22.3858 0.5 0 22.8858 0 50.5C0 78.1142 22.3858 100.5 50 100.5H70C97.6142 100.5 120 78.1142 120 50.5ZM81.0525 53.123C83.1112 51.9802 83.1112 49.0198 81.0525 47.877L47.5671 29.2893C45.5675 28.1794 43.1111 29.6253 43.1111 31.9123V69.0877C43.1111 71.3747 45.5675 72.8206 47.5671 71.7107L81.0525 53.123Z" fill="#F74902"/>
<path fill-rule="evenodd" clip-rule="evenodd" d="M120 50.5C120 22.8858 97.6142 0.5 70 0.5H50C22.3858 0.5 0 22.8858 0 50.5C0 78.1142 22.3858 100.5 50 100.5H70C97.6142 100.5 120 78.1142 120 50.5ZM81.0525 53.123C83.1112 51.9802 83.1112 49.0198 81.0525 47.877L47.5671 29.2893C45.5675 28.1794 43.1111 29.6253 43.1111 31.9123V69.0877C43.1111 71.3747 45.5675 72.8206 47.5671 71.7107L81.0525 53.123Z" fill="url(#paint0_linear)"/>
<defs>
<linearGradient id="paint0_linear" x1="120" y1="0.465558" x2="-0.650443" y2="1.25652" gradientUnits="userSpaceOnUse">
<stop stop-color="#FF9900"/>
<stop offset="1" stop-color="#FF0000" stop-opacity="0"/>
</linearGradient>
</defs>
</svg>
