<svg width="26" height="26" viewBox="0 0 26 26" fill="none" xmlns="http://www.w3.org/2000/svg">
<path d="M6.84211 0C3.07527 0 0 3.07529 0 6.84211V19.1579C0 22.9247 3.07527 26 6.84211 26H19.1579C22.9247 26 26 22.9247 26 19.1579V6.84211C26 3.07529 22.9247 0 19.1579 0H6.84211ZM6.84211 2.73684H19.1579C21.4559 2.73684 23.2632 4.54415 23.2632 6.84211V19.1579C23.2632 21.4559 21.4559 23.2632 19.1579 23.2632H6.84211C4.54414 23.2632 2.73684 21.4559 2.73684 19.1579V6.84211C2.73684 4.54415 4.54414 2.73684 6.84211 2.73684ZM19.8421 4.78947C19.0863 4.78947 18.4737 5.40212 18.4737 6.1579C18.4737 6.91364 19.0863 7.52632 19.8421 7.52632C20.5979 7.52632 21.2105 6.91364 21.2105 6.1579C21.2105 5.40212 20.5979 4.78947 19.8421 4.78947ZM13 6.5C9.42634 6.5 6.5 9.42636 6.5 13C6.5 16.5736 9.42634 19.5 13 19.5C16.5737 19.5 19.5 16.5736 19.5 13C19.5 9.42636 16.5737 6.5 13 6.5ZM13 9.23684C15.0945 9.23684 16.7632 10.9055 16.7632 13C16.7632 15.0945 15.0945 16.7632 13 16.7632C10.9055 16.7632 9.23684 15.0945 9.23684 13C9.23684 10.9055 10.9055 9.23684 13 9.23684Z" fill="#202020"/>
</svg>
