<svg width="36" height="21" viewBox="0 0 36 21" fill="none" xmlns="http://www.w3.org/2000/svg">
<path d="M17.5412 0C15.7118 0 13.8823 0 13.0982 0.515103C12.3142 0.772655 12.0528 1.28776 12.3142 1.54531C12.5755 1.54531 13.3596 1.80286 13.8823 2.31797C14.405 3.09062 14.405 4.63593 14.405 4.63593C14.405 4.63593 14.6664 9.27186 13.6209 9.78696C12.8369 10.0445 11.7915 9.27186 9.70065 5.66614C8.65523 3.86328 7.87118 1.80286 7.87118 1.80286C7.87118 1.80286 7.60982 1.28776 7.34847 1.28776C7.08712 1.03021 6.56441 0.772655 6.56441 0.772655H1.33735C1.33735 0.772655 0.553291 0.772655 0.291938 1.03021C0.0305851 1.28776 0.291938 1.80286 0.291938 1.80286C0.291938 1.80286 4.21223 11.0747 8.91659 15.7107C13.0982 20.089 17.8026 19.5739 17.8026 19.5739H19.8934C19.8934 19.5739 20.4161 19.5739 20.9388 19.0588C21.2002 19.3164 21.2002 18.8013 21.2002 18.8013C21.2002 18.8013 21.2002 15.9682 22.5069 15.4531C23.8137 14.938 25.3818 18.2862 27.2113 19.3164C28.5181 20.3466 29.5635 20.089 29.5635 20.089H34.2678C34.2678 20.089 36.8814 19.8315 35.5746 18.0286C35.5746 17.7711 34.7905 16.4833 31.9156 13.9078C29.0408 11.0747 29.3021 11.5898 32.9611 6.9539C35.0519 4.12083 36.0973 2.31797 35.8359 1.54531C35.5746 0.772655 34.0065 1.03021 34.0065 1.03021H28.5181C28.5181 1.03021 27.9954 1.03021 27.734 1.03021C27.4726 1.28776 27.2113 1.54531 27.2113 1.54531C27.2113 1.54531 26.4272 3.86328 25.1205 5.66614C23.291 9.78696 22.2456 10.0445 21.7229 9.78696C20.9388 9.27186 21.2002 7.469 21.2002 6.18124C21.2002 2.31797 21.7229 0.772655 20.1548 0.257552C19.3707 0 19.1094 0 17.5412 0Z" fill="#222222"/>
</svg>
