<svg width="16" height="30" viewBox="0 0 16 30" fill="none" xmlns="http://www.w3.org/2000/svg">
<path d="M7.97997 4.9093C9.54998 4.9093 10.8845 6.25696 10.8845 8.02575C10.8845 9.71032 9.62848 11.1422 7.97997 11.1422C6.33146 11.1422 5.07545 9.79455 5.07545 8.02575C5.07545 6.25696 6.33146 4.9093 7.97997 4.9093ZM7.97997 15.4379C11.8265 15.4379 14.9665 12.0687 14.9665 7.94152C14.888 3.89856 11.8265 0.529419 7.97997 0.529419C4.13344 0.529419 0.993417 3.89856 0.993417 8.02575C0.993417 12.1529 4.13344 15.4379 7.97997 15.4379ZM10.7275 21.5865C12.1405 21.2496 13.475 20.66 14.8095 19.8177C15.7515 19.1439 16.0655 17.7963 15.4375 16.7855C14.8095 15.7748 13.5535 15.4379 12.6115 16.1117C9.78548 18.0489 6.09595 18.0489 3.26993 16.1117C2.32793 15.4379 1.07192 15.7748 0.443913 16.7855C-0.184092 17.7963 0.12991 19.1439 1.07192 19.8177C2.32793 20.66 3.66244 21.2496 5.15395 21.5865L1.22892 25.798C0.443913 26.6402 0.443913 28.0721 1.22892 28.9144C1.62142 29.3356 2.17093 29.5882 2.64193 29.5882C3.11293 29.5882 3.66244 29.3356 4.05494 28.9144L7.90147 24.7872L11.748 28.9144C12.533 29.7567 13.8675 29.7567 14.6525 28.9144C15.4375 28.0721 15.4375 26.6402 14.6525 25.798L10.7275 21.5865Z" fill="#222222"/>
</svg>
