<svg width="30" height="25" viewBox="0 0 30 25" fill="none" xmlns="http://www.w3.org/2000/svg">
<path d="M0.0415595 22.1919C3.34257 22.4942 6.31704 21.6477 9.02434 19.5796C6.19236 19.3256 4.29844 17.8864 3.24164 15.1895C4.16782 15.3044 5.03463 15.3346 5.95488 15.0806C2.90323 14.1131 1.27647 12.0813 1.0568 8.80384C1.97111 9.23923 2.83198 9.55367 3.84722 9.56576C2.03641 8.181 1.11023 6.38504 1.14585 4.12346C1.16367 3.08338 1.43677 2.10377 1.97704 1.17858C5.33149 5.17564 9.54087 7.38884 14.7239 7.75771C14.6942 7.52793 14.6764 7.34651 14.6527 7.15906C14.2252 3.80902 16.3626 0.761334 19.6279 0.126399C21.6762 -0.272703 23.487 0.277574 25.0188 1.71676C25.2563 1.93445 25.4581 1.98283 25.755 1.90422C26.9483 1.59582 28.0823 1.14834 29.1807 0.543642C28.7592 1.95864 27.8923 3.02291 26.7168 3.91787C26.984 3.86949 27.2571 3.83321 27.5242 3.77879C27.8033 3.71832 28.0823 3.6518 28.3614 3.57319C28.6285 3.50062 28.8898 3.41597 29.151 3.32526C29.4182 3.23456 29.6853 3.13176 30 3.07733C29.8456 3.29503 29.6972 3.52481 29.531 3.73646C28.8423 4.62537 28.0467 5.40543 27.174 6.10083C27.0849 6.1734 27.0077 6.33062 27.0137 6.43947C27.0612 8.58615 26.7643 10.6784 26.0815 12.7102C24.7398 16.7133 22.4006 19.9545 18.8917 22.2705C17.1581 23.4134 15.2642 24.1632 13.2397 24.5986C11.2329 25.0279 9.21433 25.1066 7.18979 24.8647C5.15931 24.6228 3.22976 24.012 1.41302 23.0566C0.93212 22.8087 0.469028 22.5305 0 22.2645C0.0178112 22.2403 0.0296853 22.2161 0.0415595 22.1919Z" fill="#202020"/>
</svg>
