<svg width="106" height="51" viewBox="0 0 106 51" fill="none" xmlns="http://www.w3.org/2000/svg">
<path d="M7.58003 46.458C6.17893 46.458 5.37901 45.6399 5.37901 43.9551C5.37901 42.3624 6.13421 41.4522 7.58003 41.4522C9.02585 41.4522 9.71149 42.4011 9.71149 43.9697C9.71149 45.5382 9.02585 46.4629 7.58003 46.4629V46.458ZM7.67443 47.6248C9.83074 47.6248 11.207 46.3128 11.207 43.9019C11.207 41.491 9.70652 40.2855 7.83839 40.2855C6.74036 40.2855 5.9156 40.6486 5.40385 41.2634L5.45851 40.392V38.3829H3.98785V47.4892H5.31939L5.35914 46.7243H5.39888C5.90567 47.3924 6.86954 47.6199 7.66449 47.6199L7.67443 47.6248Z" fill="#979797"/>
<path d="M14.8936 50.0067L18.456 40.4162H16.9455L15.778 43.776C15.4053 44.8072 15.2712 45.2381 15.1023 45.7706H15.0476C14.9085 45.33 14.6899 44.7539 14.2527 43.6163L13.0006 40.4162H11.4057L14.3073 47.4602L13.3335 50.0067H14.8985H14.8936Z" fill="#979797"/>
<path d="M25.9136 46.3515C24.1399 46.3515 22.7636 45.1751 22.7636 42.9094C22.7636 40.6437 24.0703 39.5206 25.9136 39.5206C27.7569 39.5206 29.0338 40.6873 29.0338 42.9094C29.0338 45.1315 27.6724 46.3515 25.9136 46.3515ZM25.9136 47.6248C28.5667 47.6248 30.6435 46.0175 30.6435 42.9094C30.6435 39.8014 28.5667 38.2473 25.9136 38.2473C23.2604 38.2473 21.1588 39.8691 21.1588 42.9094C21.1588 45.9497 23.2207 47.6248 25.9136 47.6248Z" fill="#979797"/>
<path d="M39.7606 38.3829H37.7534L35.6766 40.4162C34.8518 41.2489 34.2904 41.8202 33.9426 42.1978H33.3812C33.3961 41.7137 33.411 41.0746 33.411 40.1741V38.3781H31.9105V47.4844H33.411V46.1579C33.411 44.9815 33.3961 44.1875 33.3812 43.5485H33.9873C34.3301 43.9358 34.8419 44.3908 35.9002 45.3978L38.1409 47.4892H40.2426L35.2543 42.7351L39.7606 38.3829Z" fill="#979797"/>
<path d="M48.8827 38.3829H46.8754L44.7986 40.4162C43.9739 41.2489 43.4124 41.8202 43.0646 42.1978H42.5032C42.5181 41.7137 42.533 41.0746 42.533 40.1741V38.3781H41.0326V47.4844H42.533V46.1579C42.533 44.9815 42.5181 44.1875 42.5032 43.5485H43.1094C43.4522 43.9358 43.9639 44.3908 45.0222 45.3978L47.263 47.4892H49.3646L44.3763 42.7351L48.8827 38.3829Z" fill="#979797"/>
<path d="M52.9817 41.5442C53.3096 40.6583 53.5332 40.1257 53.712 39.6561H53.8213L54.5517 41.5055L55.4013 43.7131H52.142L52.9817 41.5442ZM58.5066 47.4892L54.8895 38.3829H52.7034L49.0765 47.4892H50.6862L51.6203 45.0541H55.923L56.8571 47.4892H58.5066Z" fill="#979797"/>
<path d="M60.9163 47.4892V42.7739C60.9163 41.5539 60.9163 40.5082 60.8616 39.598H60.9312C61.0802 40.1354 61.428 41.0988 61.8255 42.1687L63.9023 47.4457H65.5816L67.6038 42.2752C68.1652 40.7502 68.3987 40.0918 68.5379 39.598H68.5925C68.5379 40.484 68.5379 41.2876 68.5379 42.6383V47.4844H70.0483V38.3781H67.6684L65.4028 44.4731C65.2239 44.904 65.0301 45.4366 64.8413 45.9981H64.7569C64.5631 45.4511 64.3743 44.967 64.1408 44.3763L61.9298 38.3781H59.4705V47.4844H60.9262L60.9163 47.4892Z" fill="#979797"/>
<path d="M3.95307 3.21627V7.55401H0.5V11.427H3.95307V22.7264C3.95307 24.5854 4.39526 25.9361 5.28461 26.793C6.17396 27.6451 7.60984 28.0711 9.59225 28.0711H14.1632V24.1981H11.1424C10.3475 24.1981 9.78602 24.0238 9.4581 23.6753C9.12522 23.3267 8.96126 22.7651 8.96126 21.9905V11.4221H14.1632V7.54917H8.96126V3.21627H3.95307Z" fill="#F44A1E"/>
<path d="M29.0536 7.39425H27.9407C25.5062 7.39425 23.7026 8.46416 22.54 10.604H22.4208V7.54432H17.4175V28.0614H22.4208V18.5387C22.4208 16.8879 22.5897 15.6534 22.9375 14.8255C23.335 13.8185 23.951 13.102 24.7857 12.676C25.6204 12.25 26.6489 12.037 27.8612 12.037H29.0536V7.39425Z" fill="#F44A1E"/>
<path d="M42.8361 20.1702C42.8361 21.5354 42.3591 22.6538 41.4052 23.5155C40.4512 24.3821 39.2091 24.813 37.6689 24.813C36.556 24.813 35.6766 24.5612 35.0307 24.0577C34.3848 23.5542 34.0569 22.8668 34.0569 21.9857C34.0569 20.8238 34.5338 20.0008 35.4878 19.507C36.2281 19.1197 37.341 18.8631 38.8266 18.7324L42.8361 18.3838V20.1702ZM47.6008 23.075V14.2107C47.6008 11.8627 46.8506 10.1005 45.3601 8.92891C43.8646 7.75734 41.6685 7.16671 38.7868 7.16671C36.243 7.16671 34.186 7.72345 32.611 8.83209C31.036 9.94073 30.1119 11.4899 29.8486 13.4797H34.7723C35.1946 11.7271 36.5212 10.8509 38.7471 10.8509C41.4449 10.8509 42.7964 12.0225 42.7964 14.3704V15.3L37.8329 15.6873C36.2728 15.7889 35.0207 15.9584 34.0767 16.1907C33.1377 16.4231 32.3229 16.7572 31.6372 17.1977C30.8174 17.6867 30.1715 18.3499 29.7095 19.1875C29.2474 20.025 29.0139 20.9739 29.0139 22.0341C29.0139 23.9948 29.6846 25.5537 31.0211 26.7156C32.3577 27.8774 34.1513 28.4584 36.402 28.4584C37.7534 28.4584 38.9955 28.1921 40.1382 27.6644C41.276 27.1367 42.1654 26.4202 42.7964 25.5149H42.9156V25.7473C42.9156 26.701 42.9951 27.4756 43.1541 28.0711H47.9586C47.8791 27.5531 47.7996 26.7979 47.7201 25.8054C47.6356 24.813 47.5959 23.9076 47.5959 23.0798L47.6008 23.075Z" fill="#F44A1E"/>
<path d="M82.9762 0.626221H77.9928V5.14308H82.9762V0.626221Z" fill="#F44A1E"/>
<path d="M82.996 7.55401H77.9928V28.0663H82.996V7.55401Z" fill="#F44A1E"/>
<path d="M66.5952 1.99629C65.5618 2.86286 65.045 4.21841 65.045 6.07743V7.54916H58.0048V6.23235C58.0048 5.51101 58.1737 5.00752 58.5215 4.72189C58.8643 4.43626 59.4357 4.29587 60.2306 4.29587H63.2514V0.693998H59.2419C57.2048 0.693998 55.6646 1.12487 54.6362 1.99144C53.6027 2.85802 53.086 4.21356 53.086 6.07259V7.54432H49.5932V11.4173H53.0463V28.0517H58.0495V11.4125H65.0103V28.0517H70.0135V11.4125H75.2154V7.53948H69.9737V6.22267C69.9737 5.50133 70.1427 4.99784 70.4905 4.71221C70.8333 4.42658 71.4046 4.28618 72.1996 4.28618H75.2204V0.693998H71.2109C69.1738 0.70368 67.6386 1.13455 66.6051 1.99629H66.5952Z" fill="#F44A1E"/>
<path d="M100.773 21.0562C100.43 22.189 99.8738 23.0556 99.1087 23.6462C98.3436 24.2368 97.3747 24.537 96.2121 24.537C94.5178 24.537 93.1565 23.9561 92.1231 22.7942C91.0896 21.6323 90.5729 19.9717 90.5729 17.8029C90.5729 15.634 91.0896 13.9299 92.1231 12.7728C93.1565 11.6109 94.5178 11.03 96.2121 11.03C97.3499 11.03 98.3088 11.2963 99.0888 11.824C99.8689 12.3517 100.42 13.1456 100.738 14.201H105.662C105.21 11.9595 104.152 10.2215 102.482 8.99669C100.818 7.77186 98.6963 7.16187 96.1276 7.16187C94.0061 7.16187 92.1529 7.57821 90.5481 8.41574C88.9482 9.25327 87.7011 10.4829 86.8118 12.0951C85.9224 13.7072 85.4802 15.6098 85.4802 17.8029C85.4802 19.9959 85.9224 21.8937 86.8118 23.4913C87.7011 25.0889 88.9433 26.3137 90.5481 27.1706C92.1479 28.0227 94.0111 28.4487 96.1276 28.4487C98.6963 28.4487 100.828 27.7951 102.522 26.4929C104.216 25.1906 105.275 23.3751 105.702 21.0562H100.773Z" fill="#F44A1E"/>
</svg>
