<svg width="11" height="20" viewBox="0 0 11 20" fill="none" xmlns="http://www.w3.org/2000/svg">
<path d="M5.41163 3.01449C6.4922 3.01449 7.41069 3.94203 7.41069 5.15942C7.41069 6.31884 6.54623 7.30435 5.41163 7.30435C4.27703 7.30435 3.41257 6.37681 3.41257 5.15942C3.41257 3.94203 4.27703 3.01449 5.41163 3.01449ZM5.41163 10.2609C8.05904 10.2609 10.2202 7.94203 10.2202 5.10145C10.1662 2.31884 8.05904 0 5.41163 0C2.76422 0 0.603072 2.31884 0.603072 5.15942C0.603072 8 2.76422 10.2609 5.41163 10.2609ZM7.30263 14.4927C8.27515 14.2609 9.19364 13.8551 10.1121 13.2754C10.7605 12.8116 10.9766 11.8841 10.5444 11.1884C10.1121 10.4927 9.24767 10.2609 8.59932 10.7246C6.65429 12.058 4.11494 12.058 2.16991 10.7246C1.52156 10.2609 0.657101 10.4927 0.224871 11.1884C-0.207358 11.8841 0.00875662 12.8116 0.657101 13.2754C1.52156 13.8551 2.44005 14.2609 3.46659 14.4927L0.765159 17.3913C0.224871 17.971 0.224871 18.9565 0.765159 19.5362C1.0353 19.8261 1.4135 20 1.73768 20C2.06185 20 2.44005 19.8261 2.71019 19.5362L5.3576 16.6956L8.00501 19.5362C8.54529 20.1159 9.46378 20.1159 10.0041 19.5362C10.5444 18.9565 10.5444 17.971 10.0041 17.3913L7.30263 14.4927Z" fill="#222222"/>
</svg>
