<svg width="26" height="14" viewBox="0 0 26 14" fill="none" xmlns="http://www.w3.org/2000/svg">
<path d="M12.6433 0.0769348C11.3842 0.0769348 10.125 0.0769348 9.5854 0.431459C9.04576 0.608721 8.86589 0.963246 9.04576 1.14051C9.22564 1.14051 9.76528 1.31777 10.125 1.67229C10.4848 2.20408 10.4848 3.26765 10.4848 3.26765C10.4848 3.26765 10.6647 6.45837 9.94516 6.8129C9.40552 6.99016 8.68601 6.45837 7.24698 3.9767C6.52746 2.73587 5.98783 1.31777 5.98783 1.31777C5.98783 1.31777 5.80795 0.963246 5.62807 0.963246C5.44819 0.785984 5.08844 0.608721 5.08844 0.608721H1.49087C1.49087 0.608721 0.951231 0.608721 0.771352 0.785984C0.591474 0.963246 0.771352 1.31777 0.771352 1.31777C0.771352 1.31777 3.46953 7.69921 6.70734 10.8899C9.5854 13.9034 12.8232 13.5489 12.8232 13.5489H14.2622C14.2622 13.5489 14.622 13.5489 14.9818 13.1943C15.1616 13.3716 15.1616 13.0171 15.1616 13.0171C15.1616 13.0171 15.1616 11.0672 16.061 10.7127C16.9604 10.3581 18.0397 12.6626 19.2988 13.3716C20.1982 14.0806 20.9177 13.9034 20.9177 13.9034H24.1556C24.1556 13.9034 25.9543 13.7261 25.055 12.4853C25.055 12.308 24.5153 11.4217 22.5367 9.64909C20.558 7.69921 20.7379 8.05373 23.2562 4.86301C24.6952 2.91313 25.4147 1.67229 25.2348 1.14051C25.055 0.608721 23.9757 0.785984 23.9757 0.785984H20.1982C20.1982 0.785984 19.8385 0.785984 19.6586 0.785984C19.4787 0.963246 19.2988 1.14051 19.2988 1.14051C19.2988 1.14051 18.7592 2.73587 17.8598 3.9767C16.6007 6.8129 15.8811 6.99016 15.5214 6.8129C14.9818 6.45837 15.1616 5.21754 15.1616 4.33123C15.1616 1.67229 15.5214 0.608721 14.4421 0.254197C13.9025 0.0769348 13.7226 0.0769348 12.6433 0.0769348Z" fill="#222222"/>
</svg>
