<svg width="52" height="52" viewBox="0 0 52 52" fill="none" xmlns="http://www.w3.org/2000/svg">
<rect width="52" height="52" fill="white"/>
<path fill-rule="evenodd" clip-rule="evenodd" d="M11 27C11 23 11.5237 20.7642 11.5237 20.7642C11.9108 18.2604 14.256 15.913 16.7701 15.587C16.7701 15.587 19.1122 15 26 15C32.8878 15 35.2337 15.5874 35.2337 15.5874C37.7421 15.9427 40.102 18.2616 40.4602 20.7682C40.4602 20.7682 41 23.3077 41 27C41 30.6923 40.4602 33.2318 40.4602 33.2318C40.0821 35.7378 37.7381 38.0485 35.2183 38.3549C35.2183 38.3549 31.5102 39 26 39C20.4898 39 16.7778 38.3544 16.7778 38.3544C14.2631 38.0312 11.8875 35.7415 11.5228 33.2291C11.5228 33.2291 11 31 11 27ZM23.6317 32.3588C22.9109 32.7979 22.3265 32.4658 22.3265 31.62V22.38C22.3265 21.5329 22.9133 21.2036 23.6317 21.6412L31.1234 26.2049C31.8442 26.644 31.8418 27.3575 31.1234 27.7951L23.6317 32.3588Z" fill="#212121"/>
</svg>
